<?xml version="1.0" encoding="UTF-8"?>
<svg id="Camada_2" data-name="Camada 2" xmlns="http://www.w3.org/2000/svg" viewBox="0 0 1085.26 331.36">
  <defs>
    <style>
      .cls-1 {
        font-family: LTSaeada-SemiBold, 'LT Saeada';
        font-size: 240px;
        font-weight: 600;
      }

      .cls-1, .cls-2 {
        fill: #fefffe;
      }

      .cls-2 {
        stroke: #212023;
        stroke-miterlimit: 10.43;
        stroke-width: .09px;
      }

      .cls-3 {
        fill: #1e1e1e;
      }

      .cls-4 {
        letter-spacing: 0em;
      }
    </style>
  </defs>
  <g id="Layer_1" data-name="Layer 1">
    <text class="cls-1" transform="translate(334.32 228.76)"><tspan x="0" y="0">om</tspan><tspan class="cls-4" x="348.96" y="0">n</tspan><tspan x="484.56" y="0">yn</tspan></text>
    <path class="cls-2" d="M142.54.7c13.23-1.99,27.11.57,38.67,7.34,30.41,17.57,60.84,35.11,91.24,52.69,17.76,9.71,29.79,29.08,30.29,49.37.09,33.33.02,66.67.04,100.01-.07,5.66.28,11.35-.53,16.97-2.3,17.87-13.47,34.33-29.17,43.16-30.62,17.68-61.22,35.39-91.86,53.03-13.43,7.93-30.06,10.13-45.1,6-7.94-1.86-14.9-6.25-21.88-10.28-24.96-14.4-49.91-28.83-74.87-43.24-5.58-3.42-11.59-6.2-16.7-10.35C8.5,254.55.05,236.86.06,219.05c-.01-35.66-.03-71.32.01-106.97.15-15.42,6.39-30.79,17.43-41.61,4.7-4.78,10.38-8.41,16.21-11.64,29.22-16.79,58.37-33.71,87.57-50.53,6.51-3.88,13.78-6.43,21.26-7.6Z"/>
    <g>
      <path class="cls-3" d="M196.03,72.88c.82-1.15,2.38-.46,3.56-.65,9.74.05,19.48-.02,29.22.04-25.78,25.82-51.59,51.59-77.39,77.4-16.09-16.12-32.23-32.18-48.29-48.32,10.67-.08,21.34.04,32.02-.07,5.51,5.28,10.79,10.8,16.24,16.13,14.97-14.74,29.71-29.73,44.64-44.53Z"/>
      <path class="cls-3" d="M58.02,88.33c22.97,23.1,46.05,46.1,69.06,69.16,2.79,2.71,5.4,5.61,8.34,8.16-16.08,16.19-32.29,32.26-48.39,48.45-.03-10.75-.02-21.5,0-32.25,5.38-5.41,10.87-10.72,16.13-16.24-15.1-14.96-30.02-30.11-45.15-45.05-.07-10.74-.07-21.49,0-32.23Z"/>
      <path class="cls-3" d="M205.29,127.97c3.43-3.61,7.21-6.89,10.41-10.72.3,10.72.04,21.47.13,32.21-5.37,5.41-10.74,10.82-16.17,16.16,14.97,15.21,30.15,30.2,45.21,45.32-.02,10.73.06,21.47-.05,32.2-6.54-6.46-12.78-13.26-19.76-19.25-.32-.71-.76-1.35-1.33-1.89-18.76-18.8-37.58-37.54-56.31-56.36,12.81-12.36,25.22-25.15,37.87-37.67Z"/>
      <path class="cls-3" d="M148.33,184.93c1.17-.86,1.89-2.9,3.61-2.6,15.96,15.87,31.69,31.97,47.82,47.65-10.77.12-21.52.08-32.29.03-5.3-5.42-10.72-10.72-16.06-16.11-15.03,15.1-30.15,30.12-45.18,45.23-10.73,0-21.47.07-32.21-.02,24.91-24.59,49.53-49.47,74.31-74.18Z"/>
    </g>
  </g>
</svg>